<svg xmlns="http://www.w3.org/2000/svg" xmlns:xlink="http://www.w3.org/1999/xlink" width="500" zoomAndPan="magnify" viewBox="0 0 375 374.999991" height="500" preserveAspectRatio="xMidYMid meet" version="1.0"><defs><g/><clipPath id="id1"><path d="M 156 106 L 218.976562 106 L 218.976562 173 L 156 173 Z M 156 106 " clip-rule="nonzero"/></clipPath><clipPath id="id2"><path d="M 156 150 L 218.976562 150 L 218.976562 187.917969 L 156 187.917969 Z M 156 150 " clip-rule="nonzero"/></clipPath></defs><g clip-path="url(#id1)"><path fill="#e87962" d="M 204.375 125.6875 L 204.375 123.65625 C 204.375 114.65625 197.589844 106.78125 188.566406 106.167969 C 178.695312 105.515625 170.441406 113.332031 170.441406 123.042969 L 170.441406 125.667969 L 161.046875 125.667969 C 158.355469 125.667969 156.179688 127.839844 156.179688 130.523438 L 156.179688 172.445312 L 199.171875 172.445312 C 201.328125 172.445312 203.304688 170.90625 203.523438 168.753906 C 203.78125 166.285156 201.839844 164.195312 199.40625 164.195312 L 188.746094 164.195312 C 183.480469 164.195312 178.792969 160.363281 178.277344 155.15625 C 177.683594 149.175781 182.414062 144.101562 188.289062 144.101562 L 218.617188 144.101562 L 218.617188 130.503906 C 218.617188 127.820312 216.441406 125.648438 213.753906 125.648438 L 204.375 125.648438 Z M 176.378906 125.6875 L 176.378906 123.0625 C 176.378906 117.003906 181.324219 112.070312 187.398438 112.070312 C 193.472656 112.070312 198.417969 117.003906 198.417969 123.0625 L 198.417969 125.6875 Z M 176.378906 125.6875 " fill-opacity="1" fill-rule="nonzero"/></g><g clip-path="url(#id2)"><path fill="#7cd1b8" d="M 184.195312 154.621094 C 184.410156 156.773438 186.390625 158.3125 188.546875 158.3125 L 198.953125 158.3125 C 204.214844 158.3125 208.90625 162.140625 209.417969 167.351562 C 210.011719 173.332031 205.285156 178.40625 199.40625 178.40625 L 156.179688 178.40625 L 156.179688 183.238281 C 156.179688 185.925781 158.355469 188.09375 161.046875 188.09375 L 213.773438 188.09375 C 216.460938 188.09375 218.640625 185.925781 218.640625 183.238281 L 218.640625 150.082031 L 188.308594 150.082031 C 185.894531 150.0625 183.957031 152.15625 184.195312 154.621094 Z M 184.195312 154.621094 " fill-opacity="1" fill-rule="nonzero"/></g><g fill="#a7a4bb" fill-opacity="1"><g transform="translate(142.376947, 207.112486)"><g><path d="M 7.371094 -15.148438 C 6.902344 -15.148438 6.472656 -15.621094 6.472656 -15.621094 C 5.425781 -15.832031 5.105469 -16.089844 4.167969 -16.089844 C 3.269531 -16.089844 2.820312 -15.621094 2.351562 -15.621094 C 1.453125 -14.722656 0.554688 -13.375 0.984375 -11.964844 C 0.984375 -11.070312 1.945312 -10.234375 2.648438 -9.507812 C 3.355469 -8.78125 3.738281 -8.804688 4.167969 -8.355469 C 4.617188 -7.90625 5.085938 -7.4375 6.003906 -6.988281 C 6.902344 -6.515625 7.371094 -6.046875 7.84375 -5.148438 C 8.71875 -1.496094 7.84375 2.117188 5.105469 3.484375 C 4.636719 3.484375 4.636719 3.953125 4.167969 3.953125 C 2.820312 3.484375 2.351562 0.746094 3.269531 -0.128906 C 3.738281 -0.597656 4.167969 -0.597656 4.636719 -0.597656 C 5.105469 -1.496094 4.636719 -2.4375 3.738281 -2.4375 C 2.414062 -1.878906 1.453125 -1.964844 0.0859375 -1.496094 C 0.0859375 -1.070312 0.0859375 -0.597656 0.554688 -0.128906 C 0.984375 -0.128906 0.984375 -0.597656 1.453125 -0.597656 C 0.984375 1.21875 1.453125 2.585938 1.921875 3.484375 C 2.351562 3.953125 3.738281 5.300781 4.636719 5.300781 L 6.472656 5.300781 C 8.289062 4.851562 9.402344 4.082031 10.085938 2.585938 C 10.664062 1.324219 10.941406 0.320312 10.941406 -1.472656 C 10.941406 -2.414062 10.726562 -3.546875 10.257812 -4.464844 C 9.828125 -5.363281 9.59375 -5.726562 9.378906 -6.089844 C 8.140625 -8.269531 5.535156 -8.804688 4.636719 -10.597656 C 4.167969 -11.539062 4.167969 -13.804688 4.636719 -14.722656 C 5.535156 -14.722656 6.472656 -14.253906 6.902344 -13.804688 C 6.902344 -12.90625 6.472656 -11.964844 6.902344 -11.539062 C 7.84375 -11.070312 8.289062 -12.4375 8.71875 -13.375 C 8.71875 -13.804688 9.1875 -14.722656 8.71875 -15.148438 C 8.71875 -15.621094 8.289062 -15.621094 7.84375 -15.621094 C 7.371094 -15.621094 7.371094 -15.148438 7.371094 -15.148438 Z M 7.371094 -15.148438 "/></g></g></g><g fill="#a7a4bb" fill-opacity="1"><g transform="translate(153.336301, 207.112486)"><g><path d="M 11.835938 -14.253906 C 12.714844 -14.253906 12.714844 -15.578125 11.835938 -16.003906 C 11.390625 -16.003906 11.132812 -15.917969 10.511719 -16.003906 C 9.550781 -16.152344 8.804688 -16.003906 7.925781 -15.578125 L 7.925781 -14.699219 C 8.355469 -14.253906 9.230469 -14.699219 9.636719 -14.253906 C 10.085938 -12.949219 10.085938 -10.746094 10.085938 -9.464844 C 8.355469 -9.039062 6.625 -9.039062 4.871094 -9.464844 C 4.421875 -10.320312 4.871094 -11.625 4.871094 -12.5 C 4.871094 -13.375 4.421875 -13.824219 4.871094 -14.253906 C 5.300781 -14.253906 6.175781 -14.253906 6.175781 -14.699219 C 6.175781 -15.128906 5.746094 -15.578125 5.300781 -15.578125 C 4.421875 -16.003906 3.140625 -15.578125 2.265625 -15.578125 L 0.511719 -15.578125 C 0.0859375 -15.128906 0.511719 -14.699219 0.511719 -14.699219 C 0.960938 -14.253906 1.390625 -14.253906 1.390625 -14.253906 C 1.835938 -13.375 1.390625 -12.074219 1.835938 -11.195312 L 1.835938 -10.746094 C 1.835938 -10.320312 1.835938 -9.914062 1.835938 -9.464844 L 1.835938 -9.039062 C 1.835938 -8.609375 1.835938 -8.609375 1.835938 -8.164062 L 1.835938 1.859375 C 1.835938 2.714844 1.835938 3.140625 1.835938 3.589844 L 0.960938 3.589844 C 0.511719 4.015625 0.960938 4.894531 0.960938 4.894531 C 2.714844 5.34375 3.546875 4.894531 5.300781 4.894531 C 6.175781 4.464844 5.300781 3.589844 4.871094 3.589844 C 4.421875 2.714844 4.871094 2.308594 4.421875 1.429688 C 4.421875 0.984375 4.421875 0.554688 4.421875 0.105469 L 4.421875 -4.65625 C 4.421875 -5.984375 4.421875 -6.859375 5.300781 -7.734375 C 6.625 -7.734375 8.355469 -8.164062 9.636719 -7.734375 C 9.636719 -7.734375 10.085938 -7.734375 10.085938 -7.285156 C 10.085938 -3.78125 10.511719 0.105469 10.085938 3.589844 C 10.085938 4.015625 9.230469 4.015625 9.230469 4.464844 C 8.804688 4.894531 8.632812 4.9375 9.058594 5.363281 C 9.464844 5.363281 9.636719 5.34375 10.085938 5.34375 C 10.960938 5.34375 11.175781 5.363281 11.625 5.363281 C 11.625 5.363281 11.859375 5.40625 12.285156 5.257812 C 12.585938 4.957031 12.714844 5.34375 12.714844 5.34375 L 12.714844 4.464844 C 12.714844 4.015625 12.265625 4.015625 11.835938 3.589844 C 11.835938 1.429688 11.390625 -1.195312 11.390625 -3.375 C 11.390625 -4.65625 11.390625 -5.984375 11.390625 -6.859375 L 11.390625 -10.746094 C 11.390625 -12.074219 11.390625 -13.375 11.835938 -14.253906 Z M 11.835938 -14.253906 "/></g></g></g><g fill="#a7a4bb" fill-opacity="1"><g transform="translate(166.5388, 207.112486)"><g><path d="M 10.40625 3.289062 C 11.28125 1.710938 11.902344 0.0429688 12.351562 -2.117188 C 12.777344 -3.867188 12.714844 -5.449219 12.714844 -6.753906 C 12.714844 -7.734375 12.714844 -8.183594 12.628906 -9.058594 C 12.414062 -11.304688 11.410156 -13.289062 10.085938 -14.167969 C 9.210938 -15.492188 8.332031 -15.917969 6.625 -15.917969 C 3.546875 -16.367188 2.671875 -13.738281 1.367188 -12.007812 C 0.917969 -11.582031 0.941406 -10.664062 0.726562 -9.742188 C 0.726562 -9.292969 0.597656 -8.675781 0.492188 -8.078125 C 0.300781 -6.902344 0.492188 -6.324219 0.492188 -5.449219 C 0.492188 -3.695312 0.492188 -1.945312 0.917969 -0.234375 C 1.367188 1.089844 1.835938 2.074219 2.242188 2.84375 C 3.289062 4.828125 6.367188 6.410156 9.210938 4.59375 C 9.59375 4.359375 10.105469 3.824219 10.40625 3.289062 Z M 8.503906 2.992188 C 8.183594 3.804688 6.027344 4.1875 5.363281 3.527344 C 5.0625 3.226562 5.300781 2.84375 4.871094 2.84375 C 4.421875 2.394531 4.421875 1.515625 3.996094 0.640625 C 3.546875 -1.945312 3.121094 -5.449219 3.546875 -8.953125 C 3.546875 -9.828125 3.546875 -10.707031 3.996094 -11.582031 C 4.421875 -12.882812 4.871094 -13.738281 5.746094 -14.617188 C 6.625 -14.617188 6.6875 -14.53125 7.519531 -14.53125 C 8.398438 -14.101562 8.78125 -12.882812 9.210938 -12.007812 C 9.65625 -11.132812 9.65625 -10.257812 10.085938 -9.378906 C 10.085938 -8.503906 10.234375 -7.671875 10.234375 -6.792969 C 10.234375 -5.941406 10.085938 -5.449219 10.085938 -4.574219 C 10.085938 -3.269531 10.085938 -1.945312 9.65625 -0.640625 C 9.421875 0.40625 8.847656 2.136719 8.503906 2.992188 Z M 8.503906 2.992188 "/></g></g></g><g fill="#a7a4bb" fill-opacity="1"><g transform="translate(179.655845, 207.112486)"><g><path d="M 5.34375 3.695312 C 4.871094 1.921875 5.34375 0.105469 5.34375 -1.6875 C 5.34375 -2.117188 5.320312 -3.078125 5.34375 -3.460938 C 5.363281 -3.910156 5.789062 -3.910156 5.789062 -3.910156 C 7.136719 -3.910156 8.011719 -3.910156 8.910156 -4.378906 C 9.828125 -5.257812 11.175781 -6.152344 11.601562 -7.5 C 12.050781 -8.417969 12.050781 -9.742188 12.050781 -11.089844 C 11.601562 -13.332031 10.234375 -15.746094 8.484375 -16.027344 C 7.820312 -16.132812 8.011719 -16.027344 7.5625 -16.027344 C 5.34375 -16.027344 3.355469 -16.132812 1.175781 -15.746094 C 0.707031 -15.320312 0 -14.894531 0.875 -14.421875 C 1.347656 -13.996094 1.601562 -14.273438 2.15625 -14.039062 C 2.585938 -13.867188 2.457031 -13.269531 2.457031 -12.628906 C 2.480469 -10.789062 2.371094 -10.214844 2.457031 -9.230469 C 2.5625 -7.800781 2.457031 -6.667969 2.457031 -5.789062 C 2.457031 -3.527344 2.328125 -1.390625 2.351562 1.539062 C 2.351562 2.199219 2.648438 3.269531 2.179688 3.695312 C 1.304688 3.695312 1.304688 3.695312 0.832031 4.144531 C 0.832031 4.617188 1.304688 5.042969 1.304688 5.042969 C 3.097656 5.492188 4.445312 5.042969 6.6875 5.042969 C 7.5625 4.144531 6.6875 3.695312 5.34375 3.695312 Z M 5.34375 -7.949219 C 5.34375 -10.171875 4.871094 -12.4375 5.34375 -14.679688 L 6.6875 -14.679688 C 7.5625 -14.679688 8.011719 -14.210938 8.484375 -14.210938 C 8.910156 -13.332031 9.230469 -11.902344 9.230469 -10.554688 C 9.230469 -9.015625 9.1875 -9.082031 8.910156 -7.949219 C 8.675781 -6.988281 7.90625 -5.984375 7.074219 -5.449219 C 6.6875 -5.214844 5.789062 -5.257812 5.34375 -5.726562 Z M 5.34375 -7.949219 "/></g></g></g><g fill="#a7a4bb" fill-opacity="1"><g transform="translate(192.388346, 207.112486)"><g><path d="M 4.507812 -14.421875 C 5.363281 -14.421875 5.8125 -15.300781 5.363281 -15.746094 C 4.507812 -16.175781 2.757812 -15.746094 1.859375 -15.746094 C 1.003906 -15.746094 0.554688 -16.175781 0.554688 -15.746094 L 0.554688 -14.871094 C 0.554688 -14.421875 1.003906 -14.421875 1.410156 -14.421875 C 1.410156 -11.792969 1.410156 -9.167969 1.410156 -6.964844 L 1.410156 -3.011719 C 1.410156 -2.5625 1.472656 -1.988281 1.472656 -1.988281 C 1.472656 -0.683594 1.410156 0.492188 1.410156 1.835938 C 1.410156 2.285156 1.859375 3.140625 1.410156 3.589844 C 1.003906 4.039062 0.554688 3.589844 0.554688 4.039062 C 0.105469 4.445312 0.554688 4.894531 0.554688 4.894531 C 1.859375 5.34375 3.609375 4.894531 4.507812 5.34375 C 4.957031 4.894531 5.363281 4.894531 5.363281 4.445312 C 4.957031 4.039062 4.507812 4.039062 4.058594 3.589844 C 4.058594 -1.261719 4.359375 -6.046875 4.507812 -10.46875 C 4.550781 -11.792969 4.058594 -13.121094 4.507812 -14.421875 Z M 4.507812 -14.421875 "/></g></g></g><g fill="#a7a4bb" fill-opacity="1"><g transform="translate(198.370058, 207.112486)"><g><path d="M 11.921875 6.195312 C 10.578125 6.195312 9.210938 4.785156 9.65625 2.992188 C 9.65625 2.542969 10.128906 1.601562 10.578125 1.132812 C 11.046875 -0.214844 11.472656 -1.582031 11.921875 -3.398438 C 11.921875 -4.335938 11.921875 -5.664062 11.921875 -6.582031 L 11.921875 -8.867188 C 11.921875 -10.214844 11.472656 -11.132812 11.046875 -12.074219 C 10.578125 -13.417969 10.128906 -14.316406 9.210938 -15.214844 C 7.84375 -16.132812 5.984375 -16.132812 3.738281 -15.683594 C 3.269531 -15.214844 2.371094 -14.785156 2.371094 -14.316406 C 1.921875 -13.890625 1.921875 -13.417969 1.472656 -12.949219 C 1.003906 -12.074219 1.003906 -11.601562 0.535156 -10.664062 C 0.535156 -10.214844 0.382812 -10.320312 0.34375 -9.851562 C -0.214844 -4.851562 -0.320312 0.664062 2.371094 3.460938 C 3.078125 4.167969 3.609375 4.550781 4.1875 4.785156 C 4.617188 4.957031 5.597656 5.257812 5.984375 5.257812 C 6.921875 5.257812 7.394531 4.785156 7.84375 4.785156 C 8.3125 4.785156 8.355469 5.726562 8.527344 6.152344 C 8.761719 6.710938 9.292969 6.964844 9.894531 7.222656 C 10.769531 7.605469 11.472656 7.542969 12.394531 7.074219 C 12.394531 6.625 12.394531 6.195312 11.921875 6.195312 Z M 9.058594 -2.714844 C 8.71875 -1.195312 8.738281 -0.214844 8.3125 0.726562 C 6.921875 0.257812 5.984375 -0.214844 4.65625 0.257812 L 4.1875 0.726562 C 3.269531 0.257812 3.269531 -2.007812 3.269531 -2.925781 C 2.84375 -7.007812 3.164062 -11.390625 5.128906 -14.316406 L 5.984375 -14.316406 C 7.84375 -14.316406 7.96875 -13.355469 8.609375 -11.730469 C 9.144531 -10.898438 9.210938 -8.417969 9.210938 -7.007812 C 9.210938 -5.683594 9.292969 -3.632812 9.058594 -2.714844 Z M 7.394531 2.542969 C 7.394531 2.542969 7.308594 2.992188 6.964844 3.3125 C 6.644531 3.652344 6.453125 3.652344 5.984375 3.652344 C 5.042969 3.652344 4.65625 1.601562 5.597656 1.601562 L 6.921875 1.601562 C 6.921875 1.601562 7.394531 2.074219 7.394531 2.542969 Z M 7.394531 2.542969 "/></g></g></g><g fill="#a7a4bb" fill-opacity="1"><g transform="translate(210.290761, 207.112486)"><g><path d="M 4.722656 2.242188 C 4.292969 0.492188 4.316406 -1.453125 4.316406 -3.632812 C 4.316406 -4.636719 4.292969 -6.027344 4.292969 -7.757812 C 4.292969 -9.082031 4.292969 -10.363281 4.292969 -11.6875 L 4.292969 -14.273438 C 4.722656 -14.742188 5.105469 -15.363281 4.808594 -15.664062 C 4.210938 -16.261719 2.992188 -16.089844 2.136719 -16.027344 C 1.304688 -15.960938 0.8125 -16.027344 0.382812 -15.597656 C 0.382812 -14.742188 1.625 -14.9375 1.710938 -14.273438 C 1.835938 -13.3125 1.710938 -12.5625 1.710938 -11.6875 L 1.710938 -0.8125 C 2.136719 0.492188 1.835938 1.902344 2.5625 3.097656 C 3.183594 4.082031 4.015625 5.105469 5.449219 5.320312 C 6.304688 5.320312 6.046875 5.277344 6.472656 5.277344 C 8.226562 5.277344 9.378906 3.738281 9.957031 2.671875 C 11.003906 0.726562 11.238281 -1.238281 11.238281 -3.847656 C 11.238281 -3.847656 11.238281 -4.316406 11.238281 -4.316406 L 11.238281 -8.652344 C 11.667969 -10.832031 10.941406 -13.675781 12.15625 -14.65625 C 12.648438 -15.042969 12.414062 -15.960938 10.8125 -16.027344 C 9.851562 -16.070312 8.570312 -15.917969 7.605469 -15.917969 C 7.136719 -15.917969 7.800781 -15.171875 7.800781 -14.742188 C 7.800781 -14.742188 8.226562 -14.742188 8.652344 -14.273438 C 9.082031 -13.417969 8.652344 -11.6875 8.652344 -9.9375 L 8.652344 -3.417969 C 8.652344 -1.667969 8.71875 1.601562 7.136719 2.757812 C 6.152344 3.460938 5.148438 2.671875 4.722656 2.242188 Z M 4.722656 2.242188 "/></g></g></g><g fill="#a7a4bb" fill-opacity="1"><g transform="translate(223.065995, 207.112486)"><g><path d="M 9.617188 -12.542969 C 11.367188 -12.542969 10.492188 -14.273438 10.492188 -15.148438 C 10.492188 -15.597656 10.042969 -16.027344 10.042969 -16.027344 L 5.683594 -16.027344 C 3.929688 -15.597656 2.199219 -15.597656 0.449219 -15.148438 C 0.449219 -15.148438 0.449219 -14.273438 0.449219 -14.273438 L 2.199219 -14.273438 C 2.199219 -12.992188 2.199219 -11.667969 2.199219 -10.363281 L 2.199219 -8.632812 C 2.199219 -6.878906 2.199219 -5.578125 2.199219 -4.253906 L 2.199219 -3.375 C 2.199219 -0.726562 2.648438 1.410156 2.199219 4.015625 C 1.773438 4.015625 0.898438 4.015625 0.449219 4.015625 L 0.449219 4.894531 C 3.054688 5.34375 5.257812 5.34375 7.414062 5.34375 L 9.617188 5.34375 C 10.042969 4.894531 10.492188 4.464844 10.492188 4.015625 C 10.492188 3.140625 10.492188 1.859375 9.617188 1.859375 C 8.738281 2.285156 9.617188 3.589844 8.738281 4.015625 C 7.414062 4.015625 6.558594 4.015625 5.257812 3.589844 C 5.257812 2.734375 5.128906 1.046875 5.128906 -0.277344 C 5.128906 -1.558594 4.808594 -3.375 5.257812 -4.699219 C 5.683594 -4.699219 7.007812 -4.699219 7.414062 -4.699219 L 7.414062 -4.253906 C 7.414062 -3.824219 8.289062 -3.375 8.289062 -3.375 C 9.167969 -3.375 8.289062 -6.027344 8.738281 -6.878906 C 8.289062 -7.308594 8.289062 -7.308594 7.863281 -7.308594 C 7.414062 -7.308594 7.414062 -6.429688 7.414062 -6.027344 C 6.558594 -6.027344 5.257812 -6.027344 4.808594 -6.429688 C 5.257812 -7.308594 4.808594 -8.183594 4.808594 -9.507812 C 4.808594 -10.363281 4.871094 -11.003906 4.871094 -12.222656 C 4.871094 -13.207031 4.808594 -13.867188 5.257812 -14.273438 C 6.132812 -14.722656 7.414062 -14.722656 8.289062 -14.722656 C 8.738281 -14.507812 8.738281 -14.507812 9.167969 -14.273438 C 9.617188 -13.867188 9.167969 -12.992188 9.617188 -12.542969 Z M 9.617188 -12.542969 "/></g></g></g></svg>